<svg xmlns="http://www.w3.org/2000/svg" width="22" height="22" viewBox="0 0 22 22" fill="none">
    <path
        d="M11 1.982C13.937 1.982 14.285 1.993 15.445 2.046C16.1424 2.05412 16.8332 2.18233 17.487 2.425C17.965 2.60111 18.3973 2.88237 18.752 3.248C19.1176 3.60269 19.3989 4.035 19.575 4.513C19.8177 5.16685 19.9459 5.85762 19.954 6.555C20.007 7.715 20.018 8.063 20.018 11C20.018 13.937 20.007 14.285 19.954 15.445C19.9459 16.1424 19.8177 16.8332 19.575 17.487C19.3919 17.9615 19.1116 18.3924 18.752 18.752C18.3924 19.1116 17.9615 19.3919 17.487 19.575C16.8332 19.8177 16.1424 19.9459 15.445 19.954C14.285 20.007 13.937 20.018 11 20.018C8.063 20.018 7.715 20.007 6.555 19.954C5.85762 19.9459 5.16685 19.8177 4.513 19.575C4.035 19.3989 3.60269 19.1176 3.248 18.752C2.88237 18.3973 2.60111 17.965 2.425 17.487C2.18233 16.8332 2.05412 16.1424 2.046 15.445C1.993 14.285 1.982 13.937 1.982 11C1.982 8.063 1.993 7.715 2.046 6.555C2.05412 5.85762 2.18233 5.16685 2.425 4.513C2.60111 4.035 2.88237 3.60269 3.248 3.248C3.60269 2.88237 4.035 2.60111 4.513 2.425C5.16685 2.18233 5.85762 2.05412 6.555 2.046C7.715 1.993 8.063 1.982 11 1.982ZM11 0C8.013 0 7.638 0.013 6.465 0.066C5.55258 0.0848561 4.6499 0.257617 3.795 0.577C3.06355 0.860172 2.3994 1.29319 1.84521 1.84824C1.29102 2.40329 0.859036 3.06811 0.577 3.8C0.257617 4.6549 0.0848561 5.55758 0.066 6.47C0.013 7.638 0 8.013 0 11C0 13.987 0.013 14.362 0.066 15.535C0.0848561 16.4474 0.257617 17.3501 0.577 18.205C0.860172 18.9365 1.29319 19.6006 1.84824 20.1548C2.40329 20.709 3.06811 21.141 3.8 21.423C4.6549 21.7424 5.55758 21.9151 6.47 21.934C7.638 21.987 8.013 22 11 22C13.987 22 14.362 21.987 15.535 21.934C16.4474 21.9151 17.3501 21.7424 18.205 21.423C18.9365 21.1398 19.6006 20.7068 20.1548 20.1518C20.709 19.5967 21.141 18.9319 21.423 18.2C21.7424 17.3451 21.9151 16.4424 21.934 15.53C21.987 14.362 22 13.987 22 11C22 8.013 21.987 7.638 21.934 6.465C21.9151 5.55258 21.7424 4.6499 21.423 3.795C21.1398 3.06355 20.7068 2.3994 20.1518 1.84521C19.5967 1.29102 18.9319 0.859036 18.2 0.577C17.3451 0.257617 16.4424 0.0848561 15.53 0.066C14.362 0.013 13.987 0 11 0Z"
        fill="#FFF" />
    <path
        d="M11 5.35101C9.88275 5.35101 8.79057 5.68232 7.8616 6.30304C6.93263 6.92376 6.20858 7.80602 5.78102 8.83823C5.35346 9.87045 5.24159 11.0063 5.45956 12.1021C5.67753 13.1979 6.21554 14.2044 7.00557 14.9945C7.7956 15.7845 8.80215 16.3225 9.89795 16.5405C10.9937 16.7584 12.1296 16.6466 13.1618 16.219C14.194 15.7914 15.0763 15.0674 15.697 14.1384C16.3177 13.2095 16.649 12.1173 16.649 11C16.649 9.50181 16.0539 8.06496 14.9945 7.00557C13.9351 5.94617 12.4982 5.35101 11 5.35101ZM11 14.667C10.2748 14.667 9.56577 14.4519 8.96274 14.049C8.3597 13.6461 7.8897 13.0734 7.61215 12.4033C7.3346 11.7333 7.26198 10.9959 7.40348 10.2846C7.54497 9.57329 7.89422 8.91989 8.40706 8.40705C8.91989 7.89421 9.57329 7.54497 10.2846 7.40347C10.9959 7.26198 11.7333 7.3346 12.4033 7.61215C13.0734 7.88969 13.6461 8.3597 14.049 8.96274C14.4519 9.56577 14.667 10.2747 14.667 11C14.667 11.9726 14.2807 12.9053 13.593 13.593C12.9053 14.2807 11.9726 14.667 11 14.667Z"
        fill="#FFF" />
    <path
        d="M16.872 6.44798C17.601 6.44798 18.192 5.857 18.192 5.12798C18.192 4.39897 17.601 3.80798 16.872 3.80798C16.143 3.80798 15.552 4.39897 15.552 5.12798C15.552 5.857 16.143 6.44798 16.872 6.44798Z"
        fill="#FFF" />
</svg>