<svg xmlns="http://www.w3.org/2000/svg" xmlns:xlink="http://www.w3.org/1999/xlink" width="500"
    zoomAndPan="magnify" viewBox="0 0 375 374.999991" height="500"
    preserveAspectRatio="xMidYMid meet" version="1.0">
    <defs>
        <clipPath id="28a3bce5ea">
            <path d="M 111 133 L 251 133 L 251 249 L 111 249 Z M 111 133 " clip-rule="nonzero" />
        </clipPath>
        <clipPath id="12dc3f4067">
            <path
                d="M 60 88.5 L 60 286.5 C 60 302.238281 72.761719 315 88.5 315 L 286.5 315 C 302.238281 315 315 302.238281 315 286.5 L 315 88.5 C 315 72.761719 302.238281 60 286.5 60 L 88.5 60 C 72.761719 60 60 72.761719 60 88.5 Z M 60 88.5 "
                clip-rule="nonzero" />
        </clipPath>
        <clipPath id="c0c5e61dac">
            <path
                d="M 89.398438 60.898438 L 285.601562 60.898438 C 301.339844 60.898438 314.101562 73.660156 314.101562 89.398438 L 314.101562 285.601562 C 314.101562 301.339844 301.339844 314.101562 285.601562 314.101562 L 89.398438 314.101562 C 73.660156 314.101562 60.898438 301.339844 60.898438 285.601562 L 60.898438 89.398438 C 60.898438 73.660156 73.660156 60.898438 89.398438 60.898438 Z M 89.398438 60.898438 "
                clip-rule="nonzero" />
        </clipPath>
        <clipPath id="3014e02e22">
            <path d="M 161 137 L 257 137 L 257 207 L 161 207 Z M 161 137 " clip-rule="nonzero" />
        </clipPath>
        <clipPath id="184cbe6106">
            <path
                d="M 60 88.5 L 60 286.5 C 60 302.238281 72.761719 315 88.5 315 L 286.5 315 C 302.238281 315 315 302.238281 315 286.5 L 315 88.5 C 315 72.761719 302.238281 60 286.5 60 L 88.5 60 C 72.761719 60 60 72.761719 60 88.5 Z M 60 88.5 "
                clip-rule="nonzero" />
        </clipPath>
        <clipPath id="a0365d1181">
            <path
                d="M 89.398438 60.898438 L 285.601562 60.898438 C 301.339844 60.898438 314.101562 73.660156 314.101562 89.398438 L 314.101562 285.601562 C 314.101562 301.339844 301.339844 314.101562 285.601562 314.101562 L 89.398438 314.101562 C 73.660156 314.101562 60.898438 301.339844 60.898438 285.601562 L 60.898438 89.398438 C 60.898438 73.660156 73.660156 60.898438 89.398438 60.898438 Z M 89.398438 60.898438 "
                clip-rule="nonzero" />
        </clipPath>
        <clipPath id="24eb7495e9">
            <path d="M 105 171 L 207 171 L 207 250 L 105 250 Z M 105 171 " clip-rule="nonzero" />
        </clipPath>
        <clipPath id="4c945bf1bf">
            <path
                d="M 60 88.5 L 60 286.5 C 60 302.238281 72.761719 315 88.5 315 L 286.5 315 C 302.238281 315 315 302.238281 315 286.5 L 315 88.5 C 315 72.761719 302.238281 60 286.5 60 L 88.5 60 C 72.761719 60 60 72.761719 60 88.5 Z M 60 88.5 "
                clip-rule="nonzero" />
        </clipPath>
        <clipPath id="2a2858bc26">
            <path
                d="M 89.398438 60.898438 L 285.601562 60.898438 C 301.339844 60.898438 314.101562 73.660156 314.101562 89.398438 L 314.101562 285.601562 C 314.101562 301.339844 301.339844 314.101562 285.601562 314.101562 L 89.398438 314.101562 C 73.660156 314.101562 60.898438 301.339844 60.898438 285.601562 L 60.898438 89.398438 C 60.898438 73.660156 73.660156 60.898438 89.398438 60.898438 Z M 89.398438 60.898438 "
                clip-rule="nonzero" />
        </clipPath>
        <clipPath id="c8c4be9bab">
            <path d="M 96 96 L 279 96 L 279 279 L 96 279 Z M 96 96 " clip-rule="nonzero" />
        </clipPath>
        <clipPath id="94faf5cff0">
            <path
                d="M 60 88.5 L 60 286.5 C 60 302.238281 72.761719 315 88.5 315 L 286.5 315 C 302.238281 315 315 302.238281 315 286.5 L 315 88.5 C 315 72.761719 302.238281 60 286.5 60 L 88.5 60 C 72.761719 60 60 72.761719 60 88.5 Z M 60 88.5 "
                clip-rule="nonzero" />
        </clipPath>
        <clipPath id="7c53bb704b">
            <path
                d="M 89.398438 60.898438 L 285.601562 60.898438 C 301.339844 60.898438 314.101562 73.660156 314.101562 89.398438 L 314.101562 285.601562 C 314.101562 301.339844 301.339844 314.101562 285.601562 314.101562 L 89.398438 314.101562 C 73.660156 314.101562 60.898438 301.339844 60.898438 285.601562 L 60.898438 89.398438 C 60.898438 73.660156 73.660156 60.898438 89.398438 60.898438 Z M 89.398438 60.898438 "
                clip-rule="nonzero" />
        </clipPath>
        <clipPath id="9598982ba4">
            <path d="M 119 141 L 243 141 L 243 240 L 119 240 Z M 119 141 " clip-rule="nonzero" />
        </clipPath>
        <clipPath id="e62b24fbbc">
            <path
                d="M 60 88.5 L 60 286.5 C 60 302.238281 72.761719 315 88.5 315 L 286.5 315 C 302.238281 315 315 302.238281 315 286.5 L 315 88.5 C 315 72.761719 302.238281 60 286.5 60 L 88.5 60 C 72.761719 60 60 72.761719 60 88.5 Z M 60 88.5 "
                clip-rule="nonzero" />
        </clipPath>
        <clipPath id="19b13830f4">
            <path
                d="M 89.398438 60.898438 L 285.601562 60.898438 C 301.339844 60.898438 314.101562 73.660156 314.101562 89.398438 L 314.101562 285.601562 C 314.101562 301.339844 301.339844 314.101562 285.601562 314.101562 L 89.398438 314.101562 C 73.660156 314.101562 60.898438 301.339844 60.898438 285.601562 L 60.898438 89.398438 C 60.898438 73.660156 73.660156 60.898438 89.398438 60.898438 Z M 89.398438 60.898438 "
                clip-rule="nonzero" />
        </clipPath>
        <clipPath id="c032141f1c">
            <path d="M 170 145 L 249 145 L 249 198 L 170 198 Z M 170 145 " clip-rule="nonzero" />
        </clipPath>
        <clipPath id="3ebc0503e1">
            <path
                d="M 60 88.5 L 60 286.5 C 60 302.238281 72.761719 315 88.5 315 L 286.5 315 C 302.238281 315 315 302.238281 315 286.5 L 315 88.5 C 315 72.761719 302.238281 60 286.5 60 L 88.5 60 C 72.761719 60 60 72.761719 60 88.5 Z M 60 88.5 "
                clip-rule="nonzero" />
        </clipPath>
        <clipPath id="4d1a4b8559">
            <path
                d="M 89.398438 60.898438 L 285.601562 60.898438 C 301.339844 60.898438 314.101562 73.660156 314.101562 89.398438 L 314.101562 285.601562 C 314.101562 301.339844 301.339844 314.101562 285.601562 314.101562 L 89.398438 314.101562 C 73.660156 314.101562 60.898438 301.339844 60.898438 285.601562 L 60.898438 89.398438 C 60.898438 73.660156 73.660156 60.898438 89.398438 60.898438 Z M 89.398438 60.898438 "
                clip-rule="nonzero" />
        </clipPath>
        <clipPath id="21fcc28074">
            <path d="M 113 179 L 198 179 L 198 242 L 113 242 Z M 113 179 " clip-rule="nonzero" />
        </clipPath>
        <clipPath id="1180282c8f">
            <path
                d="M 60 88.5 L 60 286.5 C 60 302.238281 72.761719 315 88.5 315 L 286.5 315 C 302.238281 315 315 302.238281 315 286.5 L 315 88.5 C 315 72.761719 302.238281 60 286.5 60 L 88.5 60 C 72.761719 60 60 72.761719 60 88.5 Z M 60 88.5 "
                clip-rule="nonzero" />
        </clipPath>
        <clipPath id="462ea27c90">
            <path
                d="M 89.398438 60.898438 L 285.601562 60.898438 C 301.339844 60.898438 314.101562 73.660156 314.101562 89.398438 L 314.101562 285.601562 C 314.101562 301.339844 301.339844 314.101562 285.601562 314.101562 L 89.398438 314.101562 C 73.660156 314.101562 60.898438 301.339844 60.898438 285.601562 L 60.898438 89.398438 C 60.898438 73.660156 73.660156 60.898438 89.398438 60.898438 Z M 89.398438 60.898438 "
                clip-rule="nonzero" />
        </clipPath>
        <clipPath id="c48118028f">
            <path d="M 60 60 L 315 60 L 315 315 L 60 315 Z M 60 60 " clip-rule="nonzero" />
        </clipPath>
        <clipPath id="8371d4813b">
            <path
                d="M 60 88.5 L 60 286.5 C 60 302.238281 72.761719 315 88.5 315 L 286.5 315 C 302.238281 315 315 302.238281 315 286.5 L 315 88.5 C 315 72.761719 302.238281 60 286.5 60 L 88.5 60 C 72.761719 60 60 72.761719 60 88.5 Z M 60 88.5 "
                clip-rule="nonzero" />
        </clipPath>
        <clipPath id="52e5b53fa3">
            <path
                d="M 60 88.5 L 60 286.5 C 60 302.238281 72.761719 315 88.5 315 L 286.5 315 C 302.238281 315 315 302.238281 315 286.5 L 315 88.5 C 315 72.761719 302.238281 60 286.5 60 L 88.5 60 C 72.761719 60 60 72.761719 60 88.5 Z M 60 88.5 "
                clip-rule="nonzero" />
        </clipPath>
    </defs>
    <g clip-path="url(#28a3bce5ea)">
        <g clip-path="url(#12dc3f4067)">
            <g clip-path="url(#c0c5e61dac)">
                <path stroke-linecap="butt"
                    transform="matrix(0.75, 0, 0, 0.75, 60.000001, 59.999996)" fill="none"
                    stroke-linejoin="miter"
                    d="M 232.229181 217.833353 C 189.760428 183.906267 135.536466 141.781265 96.057297 111.338554 C 84.781255 102.645845 72.864587 118.286471 84.161463 126.296889 C 89.20313 129.869805 95.807297 134.817722 103.979173 141.145848 C 142.885425 171.286475 181.718761 201.515643 220.473972 231.84377 C 222.802097 233.666687 225.666681 236.484396 228.093764 238.026063 C 235.880223 242.989605 246.406265 236.770854 242.45314 227.416687 C 240.666682 223.18752 235.302098 220.286478 232.229181 217.833353 "
                    stroke="#7f7f7f" stroke-width="2" stroke-opacity="1" stroke-miterlimit="4" />
            </g>
        </g>
    </g>
    <g clip-path="url(#3014e02e22)">
        <g clip-path="url(#184cbe6106)">
            <g clip-path="url(#a0365d1181)">
                <path stroke-linecap="butt"
                    transform="matrix(0.75, 0, 0, 0.75, 60.000001, 59.999996)" fill="none"
                    stroke-linejoin="miter"
                    d="M 185.312511 132.989597 C 202.760429 133.411472 220.213555 133.510431 237.67189 133.281264 C 241.666682 133.229181 244.42189 132.880222 245.942724 132.223972 C 252.703141 129.338555 252.750016 118.88543 246.14064 115.593763 C 244.781265 114.911471 242.473974 114.572929 239.218765 114.572929 C 212.302097 114.557304 185.390636 114.630221 158.473968 114.791679 C 153.739593 114.817721 150.546884 115.322929 148.286467 119.395846 C 145.041675 125.22918 148.421884 129.567722 152.947926 132.994806 C 174.093761 149.01564 195.062512 165.270849 215.843763 181.765642 C 221.380222 186.156267 229.546889 181.458351 230.182306 175.000017 C 230.593764 170.796891 227.234389 167.354183 223.901056 164.729183 C 212.750013 155.937515 201.609387 147.130223 190.47397 138.317723 C 188.557303 136.802098 186.78647 135.130222 185.16147 133.312514 C 184.958345 133.088556 185.010428 132.979181 185.312511 132.989597 "
                    stroke="#7f7f7f" stroke-width="2" stroke-opacity="1" stroke-miterlimit="4" />
            </g>
        </g>
    </g>
    <g clip-path="url(#24eb7495e9)">
        <g clip-path="url(#4c945bf1bf)">
            <g clip-path="url(#2a2858bc26)">
                <path stroke-linecap="butt"
                    transform="matrix(0.75, 0, 0, 0.75, 60.000001, 59.999996)" fill="none"
                    stroke-linejoin="miter"
                    d="M 149.546884 223.817728 C 127.536466 223.677103 105.359381 223.65627 83.020838 223.744812 C 78.885421 223.765645 75.916671 224.130228 73.656254 227.43752 C 69.276045 233.859396 73.458337 241.119813 81.395838 241.510438 C 87.26563 241.796896 94.614589 241.406271 99.802089 241.406271 C 123.979174 241.406271 148.156259 241.401063 172.338552 241.385438 C 179.838553 241.380229 185.781261 235.182312 182.625011 227.62502 C 181.703136 225.40627 179.552094 223.255228 177.703136 221.786478 C 165.18751 211.838561 139.848967 191.848976 101.692714 161.828141 C 92.052089 154.239599 79.880213 168.979183 90.82813 177.432309 C 110.45834 192.578143 130.098966 207.843769 149.750009 223.229187 C 150.255217 223.62502 150.182301 223.817728 149.546884 223.817728 "
                    stroke="#7f7f7f" stroke-width="2" stroke-opacity="1" stroke-miterlimit="4" />
            </g>
        </g>
    </g>
    <g clip-path="url(#c8c4be9bab)">
        <g clip-path="url(#94faf5cff0)">
            <g clip-path="url(#7c53bb704b)">
                <path fill="#fdfdfe"
                    d="M 278.535156 278.398438 C 278.535156 278.488281 278.488281 278.535156 278.398438 278.535156 L 96.601562 278.535156 C 96.511719 278.535156 96.464844 278.488281 96.464844 278.398438 L 96.464844 96.601562 C 96.464844 96.511719 96.511719 96.464844 96.601562 96.464844 L 278.398438 96.464844 C 278.488281 96.464844 278.535156 96.511719 278.535156 96.601562 Z M 234.171875 223.375 C 202.320312 197.929688 161.652344 166.335938 132.042969 143.503906 C 123.585938 136.984375 114.648438 148.714844 123.121094 154.722656 C 126.902344 157.402344 131.855469 161.113281 137.984375 165.859375 C 167.164062 188.464844 196.289062 211.136719 225.355469 233.882812 C 227.101562 235.25 229.25 237.363281 231.070312 238.519531 C 236.910156 242.242188 244.804688 237.578125 241.839844 230.5625 C 240.5 227.390625 236.476562 225.214844 234.171875 223.375 Z M 198.984375 159.742188 C 212.070312 160.058594 225.160156 160.132812 238.253906 159.960938 C 241.25 159.921875 243.316406 159.660156 244.457031 159.167969 C 249.527344 157.003906 249.5625 149.164062 244.605469 146.695312 C 243.585938 146.183594 241.855469 145.929688 239.414062 145.929688 C 219.226562 145.917969 199.042969 145.972656 178.855469 146.09375 C 175.304688 146.113281 172.910156 146.492188 171.214844 149.546875 C 168.78125 153.921875 171.316406 157.175781 174.710938 159.746094 C 190.570312 171.761719 206.296875 183.953125 221.882812 196.324219 C 226.035156 199.617188 232.160156 196.09375 232.636719 191.25 C 232.945312 188.097656 230.425781 185.515625 227.925781 183.546875 C 219.5625 176.953125 211.207031 170.347656 202.855469 163.738281 C 201.417969 162.601562 200.089844 161.347656 198.871094 159.984375 C 198.71875 159.816406 198.757812 159.734375 198.984375 159.742188 Z M 172.160156 227.863281 C 155.652344 227.757812 139.019531 227.742188 122.265625 227.808594 C 119.164062 227.824219 116.9375 228.097656 115.242188 230.578125 C 111.957031 235.394531 115.09375 240.839844 121.046875 241.132812 C 125.449219 241.347656 130.960938 241.054688 134.851562 241.054688 C 152.984375 241.054688 171.117188 241.050781 189.253906 241.039062 C 194.878906 241.035156 199.335938 236.386719 196.96875 230.71875 C 196.277344 229.054688 194.664062 227.441406 193.277344 226.339844 C 183.890625 218.878906 164.886719 203.886719 136.269531 181.371094 C 129.039062 175.679688 119.910156 186.734375 128.121094 193.074219 C 142.84375 204.433594 157.574219 215.882812 172.3125 227.421875 C 172.691406 227.71875 172.636719 227.863281 172.160156 227.863281 Z M 172.160156 227.863281 "
                    fill-opacity="1" fill-rule="nonzero" />
            </g>
        </g>
    </g>
    <g clip-path="url(#9598982ba4)">
        <g clip-path="url(#e62b24fbbc)">
            <g clip-path="url(#19b13830f4)">
                <path fill="#000000"
                    d="M 132.042969 143.503906 C 161.652344 166.335938 202.320312 197.929688 234.171875 223.375 C 236.476562 225.214844 240.5 227.390625 241.839844 230.5625 C 244.804688 237.578125 236.910156 242.242188 231.070312 238.519531 C 229.25 237.363281 227.101562 235.25 225.355469 233.882812 C 196.289062 211.136719 167.164062 188.464844 137.984375 165.859375 C 131.855469 161.113281 126.902344 157.402344 123.121094 154.722656 C 114.648438 148.714844 123.585938 136.984375 132.042969 143.503906 Z M 132.042969 143.503906 "
                    fill-opacity="1" fill-rule="nonzero" />
            </g>
        </g>
    </g>
    <g clip-path="url(#c032141f1c)">
        <g clip-path="url(#3ebc0503e1)">
            <g clip-path="url(#4d1a4b8559)">
                <path fill="#000000"
                    d="M 198.871094 159.984375 C 200.089844 161.347656 201.417969 162.601562 202.855469 163.738281 C 211.207031 170.347656 219.5625 176.953125 227.925781 183.546875 C 230.425781 185.515625 232.945312 188.097656 232.636719 191.25 C 232.160156 196.09375 226.035156 199.617188 221.882812 196.324219 C 206.296875 183.953125 190.570312 171.761719 174.710938 159.746094 C 171.316406 157.175781 168.78125 153.921875 171.214844 149.546875 C 172.910156 146.492188 175.304688 146.113281 178.855469 146.09375 C 199.042969 145.972656 219.226562 145.917969 239.414062 145.929688 C 241.855469 145.929688 243.585938 146.183594 244.605469 146.695312 C 249.5625 149.164062 249.527344 157.003906 244.457031 159.167969 C 243.316406 159.660156 241.25 159.921875 238.253906 159.960938 C 225.160156 160.132812 212.070312 160.058594 198.984375 159.742188 C 198.757812 159.734375 198.71875 159.816406 198.871094 159.984375 Z M 198.871094 159.984375 "
                    fill-opacity="1" fill-rule="nonzero" />
            </g>
        </g>
    </g>
    <g clip-path="url(#21fcc28074)">
        <g clip-path="url(#1180282c8f)">
            <g clip-path="url(#462ea27c90)">
                <path fill="#000000"
                    d="M 172.160156 227.863281 C 172.636719 227.863281 172.691406 227.71875 172.3125 227.421875 C 157.574219 215.882812 142.84375 204.433594 128.121094 193.074219 C 119.910156 186.734375 129.039062 175.679688 136.269531 181.371094 C 164.886719 203.886719 183.890625 218.878906 193.277344 226.339844 C 194.664062 227.441406 196.277344 229.054688 196.96875 230.71875 C 199.335938 236.386719 194.878906 241.035156 189.253906 241.039062 C 171.117188 241.050781 152.984375 241.054688 134.851562 241.054688 C 130.960938 241.054688 125.449219 241.347656 121.046875 241.132812 C 115.09375 240.839844 111.957031 235.394531 115.242188 230.578125 C 116.9375 228.097656 119.164062 227.824219 122.265625 227.808594 C 139.019531 227.742188 155.652344 227.757812 172.160156 227.863281 Z M 172.160156 227.863281 "
                    fill-opacity="1" fill-rule="nonzero" />
            </g>
        </g>
    </g>
    <g clip-path="url(#c48118028f)">
        <g clip-path="url(#8371d4813b)">
            <g clip-path="url(#52e5b53fa3)">
                <path stroke-linecap="butt"
                    transform="matrix(0.75, 0, 0, 0.75, 60.000001, 59.999996)" fill="none"
                    stroke-linejoin="miter"
                    d="M -0.000000746667 38.000008 L -0.000000746667 302.000025 C -0.000000746667 322.984401 17.015625 340.000028 38.000002 340.000028 L 302.000019 340.000028 C 322.984395 340.000028 340.000022 322.984401 340.000022 302.000025 L 340.000022 38.000008 C 340.000022 17.015631 322.984395 0.00000525333 302.000019 0.00000525333 L 38.000002 0.00000525333 C 17.015625 0.00000525333 -0.000000746667 17.015631 -0.000000746667 38.000008 Z M -0.000000746667 38.000008 "
                    stroke="#000000" stroke-width="38" stroke-opacity="1" stroke-miterlimit="4" />
            </g>
        </g>
    </g>
</svg>